<svg width="65" height="68" viewBox="0 0 65 68" fill="none" xmlns="http://www.w3.org/2000/svg">
<path d="M17.4185 67.2147C16.9571 67.2687 16.5398 66.938 16.4889 66.479C13.7985 42.5846 16.7671 37.6168 18.0428 35.4804C18.2023 35.2138 18.3549 34.9607 18.3719 34.8392C18.1819 33.8504 15.1047 27.3975 8.24461 20.803C3.33194 16.0781 4.83492 7.57331 5.48632 4.82951C5.59828 4.35702 6.08684 4.07353 6.55503 4.2119C6.98591 4.34015 7.24376 4.77551 7.14197 5.21425C6.5686 7.69143 5.18776 15.5179 9.42189 19.5914C16.7502 26.6382 20.0683 33.658 20.0683 34.819C20.0683 35.3893 19.8036 35.8314 19.4983 36.3444C18.4126 38.1635 15.5458 42.9626 18.1717 66.2934C18.2226 66.7524 17.8935 67.1675 17.4355 67.2181L17.4185 67.2147Z" fill="white"/>
<path d="M24.9945 26.4492C24.5908 26.4492 24.2617 26.0914 23.7867 25.5751C23.4304 25.1869 22.9283 24.6301 22.3244 23.9551C20.5195 21.9437 17.7951 18.9029 15.3184 16.4392C11.5559 12.6964 12.7128 6.95231 13.3405 4.77211C13.4762 4.29625 13.9919 4.03976 14.4567 4.21525C14.8706 4.3705 15.0945 4.81261 14.9758 5.23785C14.4465 7.12105 13.4219 12.1665 16.5195 15.2478C19.0301 17.7453 21.7748 20.8063 23.5933 22.8346C24.1192 23.4219 24.6281 23.9888 24.9911 24.3837L28.8758 20.3709C29.2015 20.0368 29.7375 20.0267 30.0734 20.3473C30.4093 20.6713 30.4195 21.2045 30.0972 21.5387L25.9241 25.8484L25.7986 25.9902L25.3813 26.3479C25.2422 26.4188 25.1166 26.4492 24.9945 26.4492Z" fill="white"/>
<path d="M36.5569 41.4169C36.3432 41.4169 36.1634 41.3562 35.9869 41.2313C35.7019 41.0322 35.5561 40.7015 35.59 40.3437C35.7257 39.0039 39.4034 32.3924 47.2983 23.1722C53.0727 16.4257 53.2729 4.74854 53.2152 1.58625C53.2084 1.13401 53.5579 0.756019 54.0159 0.729019C54.4977 0.698645 54.9048 1.07326 54.9184 1.55587C54.9964 4.92741 54.8132 17.0028 48.5943 24.269C42.6367 31.2315 39.3457 36.4153 38.0022 38.9296C38.104 39.0376 38.0158 38.9465 38.1176 39.0511C40.5739 37.8935 44.8725 35.8011 50.0905 34.8797C53.2457 34.3229 55.3458 30.6273 56.1058 29.058C56.2958 28.6631 56.7572 28.4843 57.1677 28.6429L57.1847 28.6496C57.6427 28.8285 57.8463 29.3516 57.6359 29.7904C56.7572 31.6128 54.3246 35.845 50.3891 36.5368C45.585 37.3839 41.5374 39.2975 39.1218 40.4416C37.7545 41.0896 37.0556 41.4169 36.5569 41.4169Z" fill="white"/>
<path d="M34.2464 66.8064L33.6425 55.1055L33.9818 54.8355C34.355 54.5386 42.562 48.025 46.9963 46.6143C47.4916 46.4556 48.0073 46.7796 48.082 47.2892V47.2994C48.143 47.7111 47.8886 48.0992 47.4882 48.2241C44.2889 49.2264 38.0598 53.7826 35.3796 55.8851L35.9394 66.7186C35.9631 67.1776 35.6069 67.5725 35.1455 67.5961H35.1285C34.6637 67.6231 34.2702 67.2687 34.2464 66.8064Z" fill="white"/>
<path d="M63.6308 53.4282C63.3798 53.8703 62.7928 53.9884 62.3857 53.6779C61.3781 52.9017 59.6885 51.4808 58.1482 50.0668C53.6596 45.9494 53.7207 44.9673 53.7478 44.4948C53.775 44.0358 54.0701 43.6443 54.4942 43.4654C58.5451 41.7544 61.9243 37.0126 63.0744 35.2509C63.3187 34.8763 63.814 34.7615 64.2008 34.9877L64.2178 34.9978C64.6317 35.2374 64.7606 35.7706 64.5028 36.1722C63.3017 38.0251 59.8921 42.8141 55.5663 44.8424C56.4383 46.4084 61.4629 50.8801 63.4103 52.3516C63.7428 52.6081 63.8378 53.0637 63.6308 53.4282Z" fill="white"/>
<path d="M52.2991 56.6648L52.2957 56.6479C52.2279 56.2125 52.5129 55.8109 52.9438 55.7063C57.9311 54.4981 57.982 49.7563 57.982 49.5471L59.6783 49.5437C59.6783 49.6078 59.6172 55.8379 53.3407 57.3465C52.8589 57.4646 52.3772 57.1541 52.2991 56.6648Z" fill="white"/>
<path d="M3.34889 38.8283C3.108 38.4942 3.14532 38.0319 3.44049 37.745C3.82726 37.367 4.3701 36.7595 4.8824 35.9124C5.83575 34.3431 6.36163 32.5341 6.44645 30.5429C6.70429 24.404 10.7077 22.0854 10.8773 21.9909L11.7154 23.459C11.5796 23.5366 8.35655 25.4536 8.13942 30.6138C8.04442 32.8919 7.43712 34.9674 6.33449 36.7865C5.73737 37.7686 5.10632 38.4841 4.63473 38.9465C4.26492 39.3076 3.65423 39.2502 3.34889 38.8283Z" fill="white"/>
<path d="M10.6466 39.7733C9.24545 39.7733 6.26324 39.4358 4.85526 36.7359L6.36163 35.9597C7.32516 37.8125 9.53044 38.0724 10.5958 38.0825C10.9418 38.0858 11.2268 38.3491 11.2709 38.69L11.3116 39.0275C11.3591 39.4223 11.0504 39.7733 10.6466 39.7733Z" fill="white"/>
<path d="M6.58214 32.9492C5.20808 31.8591 2.93496 32.2169 1.77464 32.5004C1.35055 32.605 0.919675 32.3721 0.773787 31.9638C0.604151 31.4913 0.882355 30.9783 1.37091 30.8602C2.823 30.5058 5.69664 30.0873 7.64067 31.633L6.58214 32.9492Z" fill="white"/>
<path d="M33.6561 15.4503C33.3066 15.4503 32.9843 15.2411 32.8283 14.9002C31.4135 11.8189 29.405 9.56788 26.8537 8.20779C24.6654 7.04007 22.5958 6.82745 21.5373 6.8072C21.1132 6.79708 20.7637 6.47646 20.7196 6.05797V6.0546C20.6619 5.54836 21.0623 5.10962 21.5712 5.11637C22.8265 5.14 25.1607 5.38974 27.6544 6.71946C29.9953 7.96817 31.9258 9.8615 33.4118 12.3623C33.8529 10.0201 34.4771 5.77111 35.0064 1.68747C35.0675 1.2251 35.4916 0.901112 35.953 0.958485C36.4178 1.01586 36.7469 1.4411 36.6858 1.90346C36.5263 3.12518 36.2074 5.50449 35.858 7.8703C35.5662 9.85475 35.305 11.441 35.0912 12.5884C34.7045 14.6471 34.5178 15.3255 33.785 15.4335C33.7443 15.447 33.7002 15.4503 33.6561 15.4503Z" fill="white"/>
<path d="M27.7053 8.1808L26.7994 6.75321C29.1404 5.28175 29.1336 2.31521 28.9877 0.934868C28.9436 0.509629 29.2218 0.11814 29.6391 0.0236424H29.6459C30.1412 -0.0911045 30.623 0.249761 30.6807 0.752623C30.8707 2.48395 30.8605 6.19635 27.7053 8.1808Z" fill="white"/>
<path d="M22.0156 54.1707C21.8155 52.7937 21.5916 50.0263 22.433 47.2555C22.5754 46.7897 23.0911 46.5501 23.5492 46.7256C23.9665 46.8842 24.1802 47.3365 24.0547 47.7617C23.3185 50.2085 23.5288 52.7228 23.7018 53.9378C23.7629 54.3664 23.4813 54.768 23.0572 54.8659L23.0369 54.8693C22.5551 54.9773 22.0869 54.6566 22.0156 54.1707Z" fill="white"/>
<path d="M24.3227 44.2957L24.3058 44.2889C23.8443 44.1472 23.5933 43.6477 23.7663 43.1988C23.902 42.8445 24.0411 42.5239 24.1633 42.2606C24.3702 41.8151 24.9097 41.6396 25.3371 41.8792L26.0496 42.2775L25.31 41.8658L25.3541 41.8894C25.7341 42.102 25.8902 42.5677 25.7103 42.9626C25.6018 43.1988 25.4762 43.4823 25.3541 43.7996C25.1947 44.2046 24.7434 44.4273 24.3227 44.2957Z" fill="white"/>
</svg>
