<svg width="69" height="67" viewBox="0 0 69 67" fill="none" xmlns="http://www.w3.org/2000/svg">
<path d="M38.9805 62.3462C29.9544 62.0953 20.2868 54.2727 20.4893 43.0781C20.6673 33.3108 28.2203 25.187 37.756 24.544C48.5254 23.8194 57.5147 32.5705 57.5147 43.4232C57.5147 50.2515 53.6691 55.085 52.1162 56.76C51.8093 57.0925 51.2937 57.0893 50.9898 56.7537C50.7167 56.4495 50.7197 55.9821 50.996 55.6841C52.3586 54.2005 55.9801 49.6713 55.9801 43.4263C55.9801 33.477 47.7458 25.4567 37.8757 26.1092C29.1288 26.6894 22.1927 34.1357 22.0239 43.0938C21.8275 53.3693 30.7216 60.549 39.0204 60.7811L38.9805 62.3462Z" fill="white"/>
<path d="M34.8188 56.7976C29.939 55.1697 25.0162 50.5149 24.8689 43.7399C24.7062 36.3407 30.3012 29.9859 37.5227 29.4088C45.6036 28.7627 52.3832 35.2993 52.3832 43.4262C52.3832 48.2942 49.753 51.7978 48.5192 53.1716C48.2154 53.5104 47.6936 53.5073 47.3898 53.1685C47.1197 52.8705 47.1166 52.4126 47.3836 52.1115C48.4425 50.9196 50.8486 47.7422 50.8486 43.4262C50.8486 36.2215 44.8486 30.4188 37.6854 30.9708C31.2679 31.4633 26.2776 37.0903 26.4034 43.6678C26.517 49.6963 30.9273 53.8523 35.2946 55.3108L34.8188 56.7976Z" fill="white"/>
<path d="M23.1594 52.9396C1.08051 28.0099 0.825775 11.7404 0.825775 11.0597C0.825775 5.08765 5.57977 0.229065 11.4233 0.229065C12.4085 0.229065 13.3998 0.379622 14.3696 0.677598C16.343 1.28296 18.0893 2.53446 19.4182 4.29723C22.1896 7.96077 32.1303 20.3033 43.799 25.1525L43.222 26.6047C31.1973 21.6081 21.0356 8.99899 18.2059 5.25389C17.0704 3.75146 15.5942 2.68816 13.9307 2.18003C13.1021 1.92596 12.2581 1.79736 11.4233 1.79736C6.42684 1.79736 2.36031 5.95335 2.36031 11.0597C2.36031 11.2197 2.67029 27.4673 24.295 51.8857L23.1594 52.9396Z" fill="white"/>
<path d="M58.3894 66.5995C56.5878 66.5995 55.1331 65.9314 54.2676 64.6987C53.353 63.3939 53.2364 61.6499 53.9392 59.793C54.5991 58.0491 55.9218 56.3867 57.6589 55.1132C61.4063 52.3687 65.7889 52.2809 67.6334 54.9125C69.4779 57.5441 67.9864 61.7565 64.239 64.4979C62.5019 65.7714 60.5346 66.5148 58.7055 66.5932C58.6011 66.5963 58.4968 66.5995 58.3894 66.5995ZM63.5209 54.5863C61.9986 54.5863 60.1817 55.1979 58.5582 56.3867C57.0605 57.4845 55.928 58.8928 55.3755 60.3576C54.863 61.7064 54.9152 62.9234 55.5198 63.7859C56.1244 64.6485 57.2354 65.0876 58.6502 65.028C60.1848 64.9621 61.8543 64.3223 63.3521 63.2245C66.2984 61.0665 67.6917 57.679 66.3904 55.8252C65.8043 54.9909 64.7608 54.5863 63.5209 54.5863Z" fill="white"/>
<path d="M44.1335 64.7614C42.0558 64.7614 39.6404 63.6635 37.6271 61.6059C34.3677 58.2749 33.5667 53.8711 35.8071 51.5814C38.0476 49.2917 42.3565 50.1103 45.6159 53.4414C48.8752 56.7725 49.6763 61.1762 47.4359 63.4659C46.5796 64.3411 45.4195 64.7614 44.1335 64.7614ZM39.0849 51.8731C38.2041 51.8731 37.4337 52.1366 36.8936 52.6917C35.3161 54.304 36.1509 57.8765 38.7135 60.4987C41.2762 63.1178 44.775 63.9709 46.3525 62.3587C47.086 61.6091 47.3284 60.4172 47.0399 59.0026C46.7269 57.4656 45.8369 55.8879 44.5325 54.5549C42.8507 52.8329 40.7637 51.8731 39.0849 51.8731Z" fill="white"/>
<path d="M34.3739 47.6795C32.1917 47.6795 30.2275 45.6156 29.8777 42.8492C29.5032 39.8914 31.1176 37.2347 33.4716 36.9241C35.8286 36.6167 38.0475 38.7684 38.4189 41.7231C38.7903 44.6778 37.179 47.3376 34.825 47.6481C34.6777 47.6701 34.5242 47.6795 34.3739 47.6795ZM31.403 42.6484C31.6669 44.7468 33.1155 46.2931 34.6347 46.0924C36.1509 45.8917 37.1698 44.0222 36.9028 41.9239C36.6388 39.8255 35.1902 38.2791 33.671 38.4799C32.1549 38.6806 31.136 40.55 31.403 42.6484Z" fill="white"/>
<path d="M43.1299 49.4611C42.0895 49.4611 41.181 49.1035 40.512 48.4197C38.8332 46.704 39.3028 43.4294 41.5616 41.124C43.8204 38.8155 47.0215 38.3356 48.7033 40.0513C50.3821 41.767 49.9126 45.0416 47.6537 47.347C46.5949 48.4291 45.2967 49.1537 43.9984 49.3827C43.7007 49.4328 43.4092 49.4611 43.1299 49.4611ZM42.645 42.2281C41.0122 43.8967 40.5335 46.221 41.5954 47.3062C42.0833 47.8049 42.8414 47.9931 43.7314 47.8332C44.7197 47.6575 45.7263 47.0898 46.5642 46.2335C48.1969 44.5648 48.6757 42.2406 47.6138 41.1554C46.5519 40.0701 44.2777 40.5625 42.645 42.2281Z" fill="white"/>
<path d="M6.42687 19.1678C5.67801 17.2984 5.05192 15.4698 4.55166 13.7164C4.43197 13.2993 4.67749 12.8601 5.08875 12.7472C5.49387 12.6343 5.91126 12.879 6.02789 13.2898C6.50973 14.9867 7.12048 16.7558 7.84478 18.5687C8.00437 18.9671 7.82329 19.425 7.43659 19.5913C7.04375 19.7575 6.58953 19.5693 6.42687 19.1678Z" fill="white"/>
<path d="M16.0822 36.5979C13.1082 32.3415 10.5916 28.1134 8.58133 24.0076C8.39105 23.6187 8.55064 23.1451 8.93428 22.9537C9.31177 22.7655 9.766 22.9255 9.95628 23.3113C11.9297 27.3418 14.4034 31.4978 17.3282 35.6852C17.5737 36.0364 17.497 36.5226 17.1563 36.7767C16.8126 37.0307 16.3307 36.9523 16.0822 36.5979Z" fill="white"/>
<path d="M44.4005 60.6431C40.7115 60.6431 38.7872 57.7198 38.0874 55.5806C37.9524 55.1634 38.2071 54.718 38.6276 54.6271L38.7135 54.6083C39.0726 54.5298 39.4317 54.7337 39.5514 55.0882C39.9811 56.3616 41.2793 59.1124 44.4742 59.0748C44.8517 59.0716 45.1801 59.3445 45.2261 59.7272L45.2353 59.8087C45.2875 60.2447 44.9591 60.6337 44.5294 60.6431C44.4865 60.6399 44.4435 60.6431 44.4005 60.6431Z" fill="white"/>
<path d="M59.5157 62.7948C59.4696 62.7948 58.8282 62.8418 58.2727 62.8826C57.8369 62.914 57.4655 62.5564 57.4748 62.1078C57.4809 61.7032 57.8001 61.3802 58.196 61.3613C59.8533 61.2861 61.084 60.8187 61.8635 59.9687C62.4896 59.2849 62.7014 58.4694 62.772 57.9268C62.818 57.5692 63.0942 57.2869 63.4472 57.2524L63.4901 57.2493C63.9689 57.2053 64.3587 57.6256 64.2973 58.1118C64.2022 58.896 63.8983 60.0346 63.0052 61.0194C61.8482 62.296 60.3351 62.6787 59.5157 62.7948Z" fill="white"/>
<path d="M33.0358 43.3698C32.7473 42.1654 32.9989 41.1209 33.2659 40.4434C33.4409 40.0042 33.9718 39.8506 34.3524 40.1203L34.4199 40.1673C34.6931 40.3618 34.8066 40.7225 34.6808 41.0393C34.5058 41.4816 34.3401 42.1748 34.5212 42.9746C34.601 43.329 34.4445 43.6929 34.1191 43.8434L34.0424 43.8779C33.6281 44.0724 33.1462 43.8246 33.0358 43.3698Z" fill="white"/>
<path d="M43.3417 45.1922L43.3325 45.1483C43.2619 44.7907 43.4522 44.4394 43.7775 44.2951C44.5846 43.9313 44.9652 43.2632 45.1401 42.777C45.2598 42.4476 45.576 42.2344 45.9197 42.272L45.9657 42.2783C46.4445 42.3285 46.7606 42.824 46.5949 43.2851C46.2818 44.1602 45.6097 45.1922 44.3821 45.7379C43.9432 45.9293 43.4368 45.6721 43.3417 45.1922Z" fill="white"/>
</svg>
