<svg width="30" height="31" viewBox="0 0 30 31" fill="none" xmlns="http://www.w3.org/2000/svg">
<path d="M2.25453 0C1.77896 0 1.32286 0.188923 0.986572 0.525207C0.650287 0.861491 0.461365 1.31759 0.461365 1.79317C0.461365 2.26875 0.650287 2.72485 0.986572 3.06113C1.32286 3.39742 1.77896 3.58634 2.25453 3.58634H4.4422L4.98912 5.77759C4.99455 5.80282 5.00053 5.82793 5.00705 5.8529L7.44217 15.5898L5.84087 17.1893C3.58148 19.4487 5.18099 23.3112 8.37641 23.3112H23.7726C24.2481 23.3112 24.7042 23.1223 25.0405 22.786C25.3768 22.4497 25.5657 21.9936 25.5657 21.518C25.5657 21.0424 25.3768 20.5863 25.0405 20.2501C24.7042 19.9138 24.2481 19.7249 23.7726 19.7249H8.37641L10.1696 17.9317H21.9794C22.3123 17.9315 22.6386 17.8387 22.9217 17.6635C23.2049 17.4884 23.4337 17.2379 23.5825 16.9401L28.962 6.18105C29.0986 5.90774 29.163 5.60406 29.1493 5.29883C29.1355 4.99359 29.044 4.69694 28.8834 4.43701C28.7228 4.17708 28.4985 3.96249 28.2317 3.81361C27.9649 3.66473 27.6644 3.5865 27.3589 3.58634H8.13613L7.58025 1.35743C7.48311 0.969662 7.25918 0.625473 6.94404 0.379534C6.6289 0.133595 6.24062 1.05087e-05 5.84087 0H2.25453Z" fill="white"/>
<path d="M25.5657 27.7941C25.5657 28.5075 25.2823 29.1917 24.7779 29.6961C24.2735 30.2005 23.5893 30.4839 22.876 30.4839C22.1626 30.4839 21.4785 30.2005 20.974 29.6961C20.4696 29.1917 20.1862 28.5075 20.1862 27.7941C20.1862 27.0808 20.4696 26.3966 20.974 25.8922C21.4785 25.3878 22.1626 25.1044 22.876 25.1044C23.5893 25.1044 24.2735 25.3878 24.7779 25.8922C25.2823 26.3966 25.5657 27.0808 25.5657 27.7941Z" fill="white"/>
<path d="M8.53063 30.4839C9.244 30.4839 9.92815 30.2005 10.4326 29.6961C10.937 29.1917 11.2204 28.5075 11.2204 27.7941C11.2204 27.0808 10.937 26.3966 10.4326 25.8922C9.92815 25.3878 9.244 25.1044 8.53063 25.1044C7.81727 25.1044 7.13312 25.3878 6.62869 25.8922C6.12426 26.3966 5.84088 27.0808 5.84088 27.7941C5.84088 28.5075 6.12426 29.1917 6.62869 29.6961C7.13312 30.2005 7.81727 30.4839 8.53063 30.4839Z" fill="white"/>
</svg>
