<svg width="17" height="12" viewBox="0 0 17 12" fill="none" xmlns="http://www.w3.org/2000/svg">
<path d="M11.2688 6.08939L17 9.80939L17 2.21257L11.2688 6.08939Z" fill="white"/>
<path d="M0 2.21257L4.5164e-08 9.80939L5.73119 6.08939L0 2.21257Z" fill="white"/>
<path d="M15.9376 -9.45608e-08L1.06261 -6.12719e-09C0.532354 -2.97477e-09 0.11167 0.405682 0.0319824 0.928297L8.50011 6.6566L16.9682 0.928297C16.8885 0.405682 16.4679 -9.77132e-08 15.9376 -9.45608e-08Z" fill="white"/>
<path d="M10.2957 6.74819L8.79226 7.76477C8.70294 7.82477 8.602 7.85409 8.50007 7.85409C8.39813 7.85409 8.2972 7.82477 8.20788 7.76477L6.70444 6.74682L0.0339356 11.0791C0.115947 11.5973 0.534639 11.9999 1.06257 11.9999L15.9376 11.9999C16.4655 11.9999 16.8842 11.5973 16.9662 11.0791L10.2957 6.74819Z" fill="white"/>
</svg>
