<svg width="69" height="83" viewBox="0 0 69 83" fill="none" xmlns="http://www.w3.org/2000/svg">
<path d="M2.34816 78.9924C1.77728 78.9924 1.29595 78.8579 0.988116 78.5524C0.288502 77.8603 0.579542 76.8206 1.85284 75.4643C12.8312 63.7927 13.2705 39.8807 13.5308 25.5917C13.6371 19.8779 13.7127 15.7501 14.4067 14.0855C16.5559 8.95168 28.315 3.38071 31.2618 2.05242C31.6172 1.89269 32.037 2.05522 32.1909 2.41392V2.41672C32.342 2.76701 32.1853 3.17334 31.8383 3.33027C29.0258 4.60812 17.6249 10.0194 15.6968 14.6263C15.1035 16.0443 15.0252 20.2674 14.9272 25.617C14.6614 40.1077 14.2164 64.3588 2.86868 76.4227C2.26421 77.0644 2.09351 77.4231 2.04313 77.5772C2.67838 77.751 5.04587 77.1121 6.50107 75.7053C6.78651 75.4307 7.19229 75.0468 7.68761 74.5788C9.68571 72.6956 13.4049 69.1899 16.3656 65.8804C21.1594 60.5196 21.0222 58.9728 20.8655 58.6253C20.0484 56.8094 19.1333 55.5848 18.5092 54.8758C17.8572 54.1332 17.7928 53.0431 18.3525 52.2248C20.5829 48.9685 27.5986 37.339 25.469 22.7278C25.413 22.3467 25.6677 21.9908 26.0455 21.9291C26.4289 21.8647 26.7955 22.1281 26.8514 22.5148C29.0594 37.636 21.8086 49.6579 19.5055 53.0179C19.3096 53.3037 19.3292 53.6876 19.5587 53.9482C20.2443 54.7301 21.2517 56.0752 22.1416 58.048C23.2274 60.4552 19.318 65.5386 8.64748 75.5988C8.15496 76.0612 7.75478 76.4423 7.47213 76.7141C6.15686 77.992 3.9097 78.9924 2.34816 78.9924Z" fill="white"/>
<path d="M63.8078 82.0356C63.7882 82.0356 63.7686 82.0356 63.7462 82.0328C62.7612 81.9824 62.291 81.0128 62.3414 79.152C62.806 62.6745 46.8799 44.1989 37.3624 33.1607C34.0378 29.3047 31.6368 26.5192 30.9847 24.9948C27.7049 17.3333 39.5816 7.40192 42.4108 5.17969C42.7214 4.93589 43.1692 4.99474 43.4043 5.3114L43.4071 5.3142C43.6337 5.61965 43.575 6.0456 43.2783 6.281C40.6534 8.36311 29.4204 17.7872 32.272 24.4399C32.8401 25.7654 35.3027 28.6237 38.423 32.2415C48.0721 43.4339 64.2192 62.1673 63.7406 79.1885C63.7155 80.0684 63.8246 80.4523 63.889 80.6008C64.4766 80.3066 65.8227 78.2553 65.9738 76.2348C66.0046 75.8397 66.0522 75.2821 66.1137 74.6011C66.3544 71.8633 66.8049 66.7687 66.8189 62.327C66.8413 55.1307 65.7107 54.0686 65.3637 53.9117C63.528 53.0906 62.0168 52.7852 61.0709 52.6759C60.1138 52.561 59.3611 51.8184 59.2435 50.8656C58.7482 46.8807 56.2156 33.1411 44.4313 23.5964L43.6365 22.9547L44.5236 22.4447C44.7111 22.3382 62.9571 11.7371 66.6566 0.171981C66.7714 -0.183911 67.1436 -0.382875 67.5046 -0.284794C67.8907 -0.178307 68.109 0.228027 67.9887 0.60914C64.555 11.3448 49.8603 20.8502 46.0852 23.1509C57.6148 32.9897 60.1334 46.6706 60.6371 50.6975C60.6763 51.0085 60.9254 51.2523 61.2416 51.2888C62.2826 51.4121 63.9421 51.7455 65.9374 52.6367C68.3469 53.7128 68.803 60.1132 67.5129 74.73C67.4542 75.4054 67.4038 75.9546 67.3758 76.3441C67.1855 78.813 65.4029 82.0356 63.8078 82.0356Z" fill="white"/>
<path d="M37.077 45.9084C34.7151 45.9084 33.0444 45.2134 32.272 43.8739C31.0967 41.8366 32.2468 38.7737 35.4287 35.4138C35.7001 35.1279 36.1563 35.1195 36.4333 35.3998C36.6992 35.6688 36.7048 36.1003 36.4473 36.375C33.7944 39.1773 32.6638 41.7498 33.4837 43.1733C34.1722 44.3671 36.2598 44.7875 39.2122 44.3279C42.4304 43.8263 46.2643 42.3579 50.0086 40.1945C53.7529 38.0311 56.9404 35.439 58.9833 32.8973C60.8582 30.5658 61.5382 28.5453 60.8498 27.3516C59.9515 25.7963 56.7025 25.5889 52.4769 26.7883C52.1131 26.892 51.7353 26.6818 51.6233 26.3203C51.5058 25.942 51.7269 25.5441 52.1047 25.4376C57.1027 24.0196 60.7967 24.4596 62.0616 26.651C63.069 28.3996 62.3638 30.9301 60.0719 33.7772C57.9226 36.4506 54.5981 39.1604 50.7082 41.4079C46.8184 43.6581 42.811 45.1854 39.4277 45.7122C38.5853 45.8439 37.799 45.9084 37.077 45.9084Z" fill="white"/>
<path d="M44.8623 52.1884C42.9761 52.1884 41.5685 51.6391 40.9165 50.5042C39.909 48.7556 40.9668 46.1158 43.8213 43.2602L44.8091 44.2523C42.5424 46.5193 41.4901 48.6995 42.1282 49.8036C43.1496 51.5775 48.657 51.0282 54.9255 47.4048C57.8555 45.7123 60.3489 43.6862 61.944 41.6994C63.3572 39.9423 63.9002 38.3758 63.3992 37.5043C62.7052 36.2993 59.9208 36.2096 56.4759 37.2801L56.0617 35.9406C60.3405 34.6123 63.5364 34.9346 64.6138 36.8009C65.4393 38.2329 64.8796 40.2842 63.0354 42.5737C61.334 44.6894 58.7034 46.8332 55.6279 48.6126C51.5786 50.9582 47.6831 52.1884 44.8623 52.1884Z" fill="white"/>
<path d="M50.8538 57.2325C49.2698 57.2325 48.1393 56.7505 47.6075 55.8258C46.768 54.3714 47.6215 52.2024 49.9471 49.8765L50.9349 50.8685C49.1747 52.6283 48.3435 54.2985 48.8193 55.1252C49.1887 55.7669 50.4312 55.9883 52.1494 55.7221C54.1363 55.4138 56.5122 54.5031 58.8321 53.1608C61.1549 51.8185 63.1278 50.2156 64.3899 48.6463C65.4785 47.2928 65.9066 46.1018 65.5372 45.46C65.1035 44.709 63.2817 44.384 60.1782 45.3451L59.764 44.0057C63.2957 42.91 65.8395 43.1818 66.749 44.7567C67.4374 45.9533 66.9868 47.6458 65.4785 49.5206C64.11 51.2216 61.9972 52.945 59.5318 54.3714C57.0635 55.7977 54.5197 56.7673 52.3649 57.1036C51.8248 57.1933 51.3211 57.2325 50.8538 57.2325Z" fill="white"/>
<path d="M58.7426 3.24335C55.9973 6.77425 52.4209 9.98569 49.1607 12.5414C48.8389 12.7936 48.7969 13.2672 49.0739 13.5698C49.0795 13.5782 49.0879 13.5838 49.0935 13.5922C49.3398 13.8613 49.7511 13.8977 50.0394 13.6735C53.3668 11.0702 57.0243 7.78027 59.8592 4.11767C60.0746 3.84024 60.0439 3.44512 59.7976 3.19571C59.7948 3.19291 59.792 3.19011 59.7864 3.1845C59.4898 2.88746 59 2.91268 58.7426 3.24335Z" fill="white"/>
</svg>
