<svg width="130" height="29" viewBox="0 0 130 29" fill="none" xmlns="http://www.w3.org/2000/svg">
<path d="M0 28.6792V0H8.83817C10.5433 0 12.0665 0.464521 13.3949 1.38629C14.7309 2.31096 15.3942 3.7409 15.3942 5.65901V23.0187C15.3942 24.8077 14.7731 26.1954 13.5251 27.1903C12.2858 28.1794 10.7305 28.6788 8.87744 28.6788H0V28.6792ZM30.036 18.8398H22.3781V23.5098C22.3781 24.2951 22.7105 24.6833 23.3741 24.6833C24.0291 24.6833 24.3571 24.2951 24.3571 23.5098V19.5786H30.036V24.2966C30.036 27.4307 27.8036 29 23.3334 29C18.9098 29 16.6996 27.3693 16.6996 24.0987V10.1995C16.6996 6.92889 18.9098 5.2967 23.3334 5.2967C27.804 5.2967 30.036 6.86742 30.036 10.0016V18.8398V18.8398ZM42.3836 28.6792H38.7861C36.2141 28.6792 34.6716 28.291 34.1665 27.5202C33.661 26.7465 33.4094 25.258 33.4094 23.0616V8.9012H30.8694V5.46221H33.4094V0.776627H39.1072V5.46258H42.1861V8.90156H39.1072V23.0191C39.1072 23.7018 39.305 24.1533 39.7152 24.3919C40.1239 24.6232 41.0116 24.7407 42.3839 24.7407V28.6792H42.3836ZM56.7512 14.6581H51.0519V10.7927C51.0519 10.082 50.7254 9.72911 50.0763 9.72911C49.4214 9.72911 49.0934 10.0692 49.0934 10.752V28.6792H43.3956V5.46221H49.0934V6.23738C49.8581 5.61172 51.0254 5.2967 52.6159 5.2967C53.7483 5.2967 54.7206 5.60008 55.5352 6.20501C56.3512 6.80885 56.7508 7.61167 56.7508 8.59927V14.6581H56.7512ZM93.226 28.6792H87.55V10.8677C87.55 10.166 87.222 9.81132 86.5657 9.81132C85.905 9.81132 85.5711 10.1529 85.5711 10.828V28.6788H79.8922V10.828C79.8922 10.1249 79.5628 9.77022 78.9079 9.77022C78.2413 9.77022 77.9119 10.1118 77.9119 10.7931V28.6792H72.233V5.46221H77.9119V6.27994C78.697 5.62336 79.8777 5.2967 81.4479 5.2967C82.7704 5.2967 83.9657 5.82124 85.0497 6.88051C86.0486 5.82124 87.4108 5.2967 89.1479 5.2967C90.1366 5.2967 91.058 5.59717 91.9235 6.19046C92.7893 6.77793 93.2257 7.60585 93.2257 8.65493V28.6792H93.226ZM70.8435 28.6792H65.8006V27.7781C65.3774 28.59 64.1559 29 62.1432 29C59.0366 29 57.4795 27.7854 57.4795 25.3617V20.6994C57.4795 19.6605 57.8632 18.7522 58.6148 17.9814C59.3646 17.2033 60.8865 16.2408 63.1657 15.0804C64.4824 14.4107 65.1461 13.8774 65.1461 13.4758V10.7927C65.1461 10.0292 64.8181 9.65272 64.1632 9.65272C63.4177 9.65272 63.1832 10.0983 63.1832 10.7811L63.1803 14.6362H57.6861V10.0016C57.6861 6.86742 59.9519 5.2967 64.4824 5.2967C68.7199 5.2967 70.8439 6.92889 70.8439 10.1995V28.6792H70.8435ZM108.259 5.54006H114.241L116.124 10.0074L118.006 5.54006H123.99L119.114 17.0963L123.988 28.6482H118.006L116.124 24.1838L114.241 28.6482H108.26L113.132 17.0963L108.259 5.54006ZM107.774 28.6792H102.729V27.7781C102.307 28.59 101.084 29 99.07 29C95.9664 29 94.4108 27.7854 94.4108 25.3617V20.6994C94.4108 19.6605 94.7915 18.7522 95.5417 17.9814C96.2944 17.2033 97.8166 16.2408 100.094 15.0804C101.411 14.4107 102.074 13.8774 102.074 13.4758V10.7927C102.074 10.0292 101.746 9.65272 101.091 9.65272C100.349 9.65272 100.114 10.0983 100.114 10.7811L100.109 14.6362H94.6162V10.0016C94.6162 6.86742 96.8806 5.2967 101.413 5.2967C105.651 5.2967 107.774 6.92889 107.774 10.1995V28.6792H107.774ZM102.074 23.5858V19.1083C100.763 19.4306 100.109 20.018 100.109 20.8711V23.5862C100.109 24.294 100.448 24.6498 101.133 24.6498C101.761 24.6498 102.074 24.2951 102.074 23.5858ZM65.1457 23.5858V19.1083C63.8334 19.4306 63.1799 20.018 63.1799 20.8711V23.5862C63.1799 24.294 63.5195 24.6498 64.2024 24.6498C64.8308 24.6498 65.1457 24.2951 65.1457 23.5858ZM24.3571 15.3601V10.7927C24.3571 10.0292 24.0291 9.65272 23.3741 9.65272C22.7105 9.65272 22.3781 10.0292 22.3781 10.7927V15.3597H24.3571V15.3601ZM9.05489 22.7259V6.20392C9.05489 5.20176 8.4749 4.70341 7.30144 4.70341L5.71381 4.71942V24.2482H7.30144C8.4749 24.2482 9.05489 23.7426 9.05489 22.7259Z" fill="black"/>
<path d="M127.493 2.63361C127.493 2.38589 127.312 2.26294 126.949 2.26294H126.683V2.98537H126.981C127.322 2.98537 127.493 2.86933 127.493 2.63361ZM128.13 4.37129H127.455L126.981 3.35131H126.683V4.37129H126.077V1.87917H127.054C127.763 1.87917 128.117 2.11816 128.117 2.59578C128.117 2.94608 127.937 3.16579 127.574 3.25819L128.13 4.37129ZM128.882 3.20217C128.882 2.66598 128.705 2.21456 128.346 1.84534C127.989 1.47613 127.542 1.29134 127.011 1.29134C126.496 1.29134 126.062 1.46994 125.706 1.82315C125.33 2.20256 125.138 2.65107 125.138 3.16543C125.138 3.67542 125.318 4.11338 125.675 4.47532C126.052 4.85473 126.493 5.04534 127.005 5.04534C127.508 5.04534 127.95 4.86055 128.332 4.49424C128.699 4.1443 128.882 3.71361 128.882 3.20217ZM129.254 3.17125C129.254 3.80273 129.031 4.33309 128.586 4.76706C128.142 5.19775 127.615 5.41455 127.006 5.41455C126.386 5.41455 125.857 5.18757 125.41 4.73469C124.981 4.29817 124.767 3.77654 124.767 3.17125C124.767 2.76238 124.877 2.37425 125.095 2.00212C125.296 1.66055 125.564 1.39537 125.899 1.20658C126.232 1.01743 126.599 0.922485 127.005 0.922485C127.638 0.922485 128.177 1.14511 128.618 1.59653C129.04 2.02686 129.254 2.55286 129.254 3.17125Z" fill="black"/>
</svg>
