<svg width="16" height="16" viewBox="0 0 16 16" fill="none" xmlns="http://www.w3.org/2000/svg">
<path d="M14.9486 11.3827C14.8697 11.3226 14.7876 11.2603 14.7113 11.1992C14.3052 10.8744 13.8732 10.5748 13.4555 10.2856C13.3687 10.2255 13.2819 10.1654 13.1956 10.1052C12.6606 9.73136 12.1792 9.54991 11.7247 9.54991C11.1123 9.54991 10.5789 9.88614 10.138 10.5492C9.94281 10.8431 9.70607 10.9858 9.41409 10.9858C9.24153 10.9858 9.0453 10.9367 8.83118 10.8405C7.10403 10.0618 5.87034 8.86804 5.16538 7.29251C4.82447 6.53115 4.93495 6.03334 5.53522 5.62809C5.87613 5.39801 6.51007 4.97026 6.46535 4.15086C6.41432 3.22009 4.34836 0.419903 3.47821 0.101974C3.10942 -0.0329372 2.72221 -0.033983 2.32502 0.0988361C1.32492 0.432976 0.606803 1.0202 0.248536 1.79672C-0.0976322 2.5471 -0.0818495 3.42768 0.293779 4.34434C1.37963 6.99393 2.90582 9.30362 4.83131 11.2096C6.71577 13.0754 9.03162 14.6038 11.7147 15.7527C11.9567 15.8562 12.2103 15.9127 12.3954 15.9535C12.4586 15.9676 12.5133 15.9796 12.5527 15.9906C12.5743 15.9963 12.5969 15.9995 12.6196 16H12.6406C13.9027 16 15.4178 14.8538 15.8834 13.547C16.2911 12.4024 15.5467 11.8371 14.9486 11.3827Z" fill="white"/>
</svg>
