<svg width="12" height="18" viewBox="0 0 12 18" fill="none" xmlns="http://www.w3.org/2000/svg">
<path d="M11.1664 3.08241C10.1074 1.19698 8.22626 0.0452637 6.13418 0.00131836C6.04488 -0.000439453 5.95489 -0.000439453 5.86559 0.00131836C3.77385 0.0452637 1.89275 1.19698 0.833412 3.08241C-0.2491 5.00933 -0.278753 7.32401 0.754337 9.27413L5.08166 17.4441C5.0837 17.4476 5.08541 17.4515 5.08745 17.455C5.27798 17.7964 5.61882 18.0003 5.99989 18.0003C6.38095 18.0003 6.72179 17.7964 6.91232 17.455C6.91436 17.4515 6.91641 17.448 6.91811 17.4441L11.2458 9.27413C12.2785 7.32401 12.2489 5.00933 11.1664 3.08241ZM5.99989 8.15616C4.64675 8.15616 3.54583 7.02062 3.54583 5.62491C3.54583 4.22921 4.64675 3.09366 5.99989 3.09366C7.35303 3.09366 8.45394 4.22921 8.45394 5.62491C8.45394 7.02062 7.35303 8.15616 5.99989 8.15616Z" fill="white"/>
</svg>
